<svg width="331" height="229" viewBox="0 0 331 229" fill="none" xmlns="http://www.w3.org/2000/svg">
<g filter="url(#filter0_i_6694_4330)">
<path d="M169.884 53.6691C144.025 83.935 122.476 60.4635 82.4572 50.5807C15.6257 34.0767 0.000110792 95.8091 0 144.467C-0.000110792 193.124 37.9468 226.617 70.5069 226.617C121.134 226.617 131.337 186.211 157.378 186.211C190.079 186.211 232.067 238.352 283.169 226.617C330.576 215.729 346.79 81.8312 311.49 31.433C263.467 -37.1285 195.742 23.4033 169.884 53.6691Z" fill="#F1FFFD" fill-opacity="0.4"/>
</g>
<mask id="mask0_6694_4330" style="mask-type:alpha" maskUnits="userSpaceOnUse" x="0" y="0" width="331" height="229">
<path d="M169.884 53.6691C144.025 83.935 122.476 60.4635 82.4572 50.5807C15.6257 34.0767 0.000110792 95.8091 0 144.467C-0.000110792 193.124 37.9468 226.617 70.5069 226.617C121.134 226.617 131.337 186.211 157.378 186.211C190.079 186.211 232.067 238.352 283.169 226.617C330.576 215.729 346.79 81.8312 311.49 31.433C263.467 -37.1285 195.742 23.4033 169.884 53.6691Z" fill="#F1F1FA"/>
</mask>
<g mask="url(#mask0_6694_4330)">
<path d="M326.806 208.202L330.851 209.854L93.8154 275.637C23.8645 268.207 -109.84 244.648 -85.0488 209.854C-54.0602 166.361 -19.266 140.266 62.2831 140.266C160.427 140.266 173.512 145.609 326.806 208.202Z" fill="#D1DFE5"/>
<path d="M314.853 137.004C353.996 137.004 385.529 145.702 418.692 187.564L312.678 236.494C242.727 229.064 143.273 237.037 168.064 202.243C199.053 158.75 233.304 137.004 314.853 137.004Z" fill="#D1DFE5" stroke="#F1F1FA" stroke-width="4.34928"/>
<path d="M50.2536 200.292V199.792H49.7536H40.2686C32.1299 199.792 25.5078 193.17 25.5078 185.031V166.472C25.5078 161.736 29.3367 157.898 34.0822 157.898C38.8096 157.898 42.6564 161.745 42.6564 166.472V182.144V182.644H43.1564H49.7536H50.2536V182.144V144.82C50.2536 138.362 55.4786 133.152 61.9211 133.152C68.3542 133.152 73.5886 138.387 73.5886 144.82V166.678V167.178H74.0886H80.6858H81.1858V166.678V157.193C81.1858 152.457 85.0146 148.618 89.7601 148.618C94.4874 148.618 98.3345 152.465 98.3345 157.193V169.565C98.3345 177.704 91.7124 184.326 83.5737 184.326H74.0886H73.5886V184.826V225.449C73.5886 226.767 72.5195 227.837 71.2008 227.837H52.6415C51.3228 227.837 50.2536 226.767 50.2536 225.449V200.292Z" fill="#1A7A6C" stroke="black"/>
<path fill-rule="evenodd" clip-rule="evenodd" d="M260.278 228.807C262.694 229.667 265.294 230.136 268 230.139C268.009 230.139 268.017 230.139 268.025 230.139C268.032 230.139 268.04 230.139 268.048 230.139C270.755 230.137 273.355 229.667 275.771 228.807C275.781 228.807 275.79 228.807 275.8 228.807L281.88 228.82H281.882C282.323 228.82 282.68 228.464 282.681 228.023C282.681 227.582 282.325 227.224 281.884 227.223L279.276 227.218C282.246 225.56 284.815 223.267 286.799 220.523L291.722 217.391C292.094 217.155 292.204 216.661 291.967 216.289C291.731 215.917 291.238 215.806 290.864 216.044L288.689 217.428C290.004 214.837 290.846 211.966 291.1 208.931C291.106 208.919 291.111 208.907 291.117 208.895L293.512 203.305C293.686 202.9 293.498 202.43 293.093 202.257C292.691 202.084 292.218 202.271 292.045 202.676L291.09 204.902C290.825 201.886 289.987 199.008 288.647 196.394C288.647 196.359 288.644 196.324 288.639 196.289L287.778 190.269C287.716 189.832 287.312 189.529 286.875 189.591C286.438 189.654 286.135 190.058 286.197 190.495L286.566 193.072C284.804 190.733 282.578 188.712 279.958 187.134C279.581 186.907 279.089 187.028 278.862 187.406C278.634 187.784 278.756 188.274 279.134 188.502C281.74 190.072 283.927 192.112 285.616 194.481L282.966 193.247C282.563 193.061 282.091 193.235 281.905 193.633C281.719 194.033 281.892 194.508 282.292 194.695L287.134 196.95C288.563 199.675 289.403 202.716 289.558 205.903L287.853 203.346C287.608 202.979 287.113 202.88 286.746 203.125C286.379 203.369 286.28 203.865 286.524 204.232L289.515 208.718C289.2 212.651 287.825 216.29 285.677 219.348C285.548 219.447 285.457 219.578 285.407 219.723C284.307 221.221 283.018 222.571 281.575 223.74C284.083 220.702 285.592 216.81 285.592 212.572C285.592 209.169 284.638 205.942 282.9 203.191L283.193 199.867C283.232 199.427 282.907 199.04 282.468 199.001C282.019 198.968 281.641 199.288 281.602 199.726L281.468 201.242C280.243 199.795 278.768 198.534 277.077 197.515C276.7 197.288 276.208 197.409 275.981 197.787C275.754 198.164 275.875 198.655 276.254 198.883C280.003 201.141 282.584 204.715 283.56 208.834L282.444 208.387C282.039 208.225 281.57 208.423 281.406 208.832C281.243 209.242 281.442 209.706 281.852 209.87L283.886 210.684C283.958 211.305 283.995 211.935 283.995 212.572C283.995 214.375 283.694 216.11 283.141 217.728L282.346 216.833C282.052 216.503 281.548 216.474 281.219 216.766C280.889 217.06 280.859 217.564 281.152 217.894L282.471 219.377C281.354 221.739 279.675 223.785 277.607 225.34C279.111 223.339 280.002 220.852 280.002 218.162C280.002 216.415 279.626 214.755 278.951 213.257L278.957 213.24L279.706 211.144C279.855 210.729 279.638 210.272 279.222 210.123C278.808 209.975 278.35 210.192 278.203 210.607L277.915 211.412C275.755 208.258 272.128 206.184 268.025 206.184C267.583 206.184 267.226 206.542 267.226 206.983C267.226 207.424 267.583 207.781 268.025 207.781C268.428 207.781 268.826 207.805 269.218 207.85L267.526 210.211C267.268 210.569 267.351 211.068 267.709 211.325C267.85 211.426 268.013 211.474 268.174 211.474C268.422 211.474 268.667 211.359 268.823 211.141L270.934 208.196C275.246 209.457 278.405 213.447 278.405 218.162C278.405 220.287 277.763 222.265 276.663 223.912L275.97 222.901C275.72 222.537 275.224 222.444 274.86 222.694C274.495 222.943 274.403 223.44 274.652 223.804L275.626 225.224C274.659 226.264 273.482 227.106 272.162 227.682C269.325 225.779 267.232 223.351 265.894 220.422L267.069 218.837C267.331 218.482 267.257 217.983 266.903 217.72C266.548 217.458 266.049 217.532 265.786 217.886L265.205 218.671C264.539 216.683 264.18 214.493 264.133 212.107C264.027 206.821 265.566 202.507 265.582 202.464C265.731 202.05 265.518 201.592 265.103 201.441C264.69 201.293 264.231 201.505 264.08 201.919C264.058 201.98 263.33 204.043 262.893 207.099L261.274 204.969C261.008 204.619 260.508 204.55 260.155 204.817C259.804 205.084 259.736 205.585 260.003 205.936L262.532 209.263C262.566 209.308 262.605 209.349 262.647 209.385C262.332 213.776 262.856 219.385 266.245 224.162L265.879 224.231C265.446 224.314 265.161 224.732 265.244 225.165C265.317 225.548 265.652 225.814 266.028 225.814C266.077 225.814 266.128 225.81 266.178 225.8L267.357 225.576C268.19 226.534 269.157 227.447 270.276 228.297C269.579 228.451 268.856 228.536 268.114 228.542C268.084 228.542 268.054 228.542 268.025 228.542C267.995 228.542 267.965 228.542 267.936 228.542C264.535 228.513 261.519 226.841 259.645 224.282L260.476 223.186C260.743 222.835 260.674 222.334 260.323 222.067C259.97 221.8 259.47 221.87 259.204 222.221L258.749 222.82C258.043 221.418 257.644 219.836 257.644 218.162C257.644 216.026 258.288 213.975 259.505 212.231C259.757 211.869 259.669 211.372 259.307 211.119C258.943 210.865 258.447 210.955 258.195 211.317C257.824 211.849 257.499 212.405 257.222 212.982L256.976 212.722C256.673 212.401 256.168 212.389 255.848 212.691C255.527 212.995 255.514 213.5 255.817 213.82L256.578 214.623C256.227 215.759 256.047 216.949 256.047 218.162C256.047 220.853 256.939 223.339 258.443 225.341C255.16 222.871 252.856 219.166 252.227 214.923L254.283 212.262C254.553 211.913 254.489 211.412 254.14 211.142C253.79 210.87 253.287 210.937 253.02 211.286L252.055 212.535C252.073 204.655 257.951 197.879 265.742 196.764C266.179 196.702 266.482 196.298 266.42 195.861C266.357 195.425 265.953 195.118 265.516 195.184C260.593 195.888 256.363 198.647 253.652 202.511V200.595C253.652 200.154 253.295 199.796 252.853 199.796C252.412 199.796 252.055 200.154 252.055 200.595V205.29C251.028 207.523 250.458 209.994 250.458 212.572C250.458 213.311 250.504 214.039 250.592 214.754C250.595 214.786 250.599 214.819 250.605 214.851C251.04 218.199 252.423 221.255 254.473 223.739C253.031 222.571 251.742 221.22 250.641 219.722C250.592 219.578 250.501 219.447 250.373 219.349C248.224 216.291 246.849 212.651 246.534 208.718L249.525 204.232C249.77 203.865 249.671 203.369 249.304 203.125C248.936 202.88 248.44 202.979 248.196 203.346L246.492 205.903C246.646 202.73 247.483 199.688 248.932 196.942L253.758 194.695C254.158 194.508 254.331 194.033 254.145 193.633C253.96 193.235 253.486 193.061 253.084 193.247L250.462 194.468C251.193 193.447 252.02 192.482 252.937 191.583C253.252 191.275 253.256 190.769 252.948 190.454C252.64 190.139 252.134 190.135 251.819 190.443C250.964 191.279 250.183 192.17 249.479 193.107L249.853 190.495C249.915 190.058 249.612 189.654 249.175 189.591C248.738 189.532 248.334 189.833 248.271 190.269L247.41 196.289C247.404 196.332 247.402 196.376 247.403 196.419C246.055 199.043 245.223 201.911 244.96 204.903L244.005 202.676C243.831 202.27 243.359 202.083 242.957 202.257C242.552 202.43 242.364 202.9 242.537 203.305L244.933 208.895C244.938 208.907 244.944 208.919 244.949 208.931C245.203 211.966 246.045 214.837 247.361 217.428L245.185 216.044C244.812 215.808 244.319 215.916 244.082 216.289C243.845 216.661 243.955 217.155 244.327 217.391L249.25 220.524C251.234 223.267 253.804 225.56 256.774 227.218L254.165 227.223C253.724 227.224 253.368 227.582 253.369 228.023C253.369 228.464 253.727 228.82 254.167 228.82H254.169L260.249 228.807C260.259 228.807 260.269 228.807 260.278 228.807Z" fill="#1A7A6C"/>
<path d="M268 230.139L268.001 229.889H268.001L268 230.139ZM260.278 228.807L260.362 228.571L260.317 228.555L260.269 228.557L260.278 228.807ZM268.048 230.139L268.048 229.889H268.048L268.048 230.139ZM275.771 228.807L275.78 228.557L275.732 228.555L275.687 228.571L275.771 228.807ZM275.8 228.807L275.8 228.557H275.8L275.8 228.807ZM281.88 228.82L281.88 229.07H281.88V228.82ZM282.681 228.023L282.431 228.023L282.681 228.023ZM281.884 227.223L281.883 227.473H281.883L281.884 227.223ZM279.276 227.218L279.154 226.999L278.319 227.466L279.275 227.468L279.276 227.218ZM286.799 220.523L286.665 220.313L286.625 220.338L286.597 220.377L286.799 220.523ZM291.722 217.391L291.856 217.602L291.856 217.602L291.722 217.391ZM291.967 216.289L291.756 216.423L291.756 216.423L291.967 216.289ZM290.864 216.044L290.73 215.833L290.73 215.833L290.864 216.044ZM288.689 217.428L288.466 217.315L288.053 218.129L288.823 217.639L288.689 217.428ZM291.1 208.931L290.875 208.821L290.855 208.863L290.851 208.91L291.1 208.931ZM291.117 208.895L290.887 208.796L290.887 208.796L291.117 208.895ZM293.512 203.305L293.282 203.207L293.282 203.207L293.512 203.305ZM293.093 202.257L292.994 202.486L292.994 202.487L293.093 202.257ZM292.045 202.676L292.274 202.774L292.275 202.774L292.045 202.676ZM291.09 204.902L290.841 204.924L291.32 205.001L291.09 204.902ZM288.647 196.394L288.397 196.396L288.398 196.455L288.425 196.508L288.647 196.394ZM288.639 196.289L288.887 196.253L288.887 196.253L288.639 196.289ZM287.778 190.269L287.531 190.304V190.304L287.778 190.269ZM286.875 189.591L286.91 189.839L286.91 189.839L286.875 189.591ZM286.197 190.495L285.949 190.53L285.949 190.53L286.197 190.495ZM286.566 193.072L286.366 193.223L286.813 193.037L286.566 193.072ZM279.958 187.134L279.828 187.348L279.829 187.348L279.958 187.134ZM278.862 187.406L279.076 187.535L279.076 187.535L278.862 187.406ZM279.134 188.502L279.263 188.288L279.263 188.288L279.134 188.502ZM285.616 194.481L285.511 194.708L286.371 195.108L285.82 194.336L285.616 194.481ZM282.966 193.247L283.071 193.02L283.07 193.02L282.966 193.247ZM281.905 193.633L282.132 193.739L282.132 193.739L281.905 193.633ZM282.292 194.695L282.186 194.921L282.186 194.921L282.292 194.695ZM287.134 196.95L287.356 196.834L287.316 196.759L287.24 196.723L287.134 196.95ZM289.558 205.903L289.35 206.042L289.852 206.795L289.808 205.891L289.558 205.903ZM287.853 203.346L287.645 203.485V203.485L287.853 203.346ZM286.746 203.125L286.884 203.333L286.885 203.333L286.746 203.125ZM286.524 204.232L286.732 204.093L286.732 204.093L286.524 204.232ZM289.515 208.718L289.764 208.738L289.771 208.651L289.723 208.579L289.515 208.718ZM285.677 219.348L285.829 219.547L285.859 219.523L285.881 219.492L285.677 219.348ZM285.407 219.723L285.609 219.871L285.631 219.84L285.644 219.804L285.407 219.723ZM281.575 223.74L281.383 223.581L281.733 223.934L281.575 223.74ZM282.9 203.191L282.651 203.169L282.643 203.253L282.688 203.325L282.9 203.191ZM283.193 199.867L282.944 199.845L282.944 199.845L283.193 199.867ZM282.468 199.001L282.49 198.752L282.486 198.752L282.468 199.001ZM281.602 199.726L281.353 199.704L281.353 199.704L281.602 199.726ZM281.468 201.242L281.278 201.403L281.665 201.86L281.717 201.264L281.468 201.242ZM277.077 197.515L277.206 197.301L277.206 197.301L277.077 197.515ZM275.981 197.787L276.196 197.916L276.196 197.915L275.981 197.787ZM276.254 198.883L276.383 198.668L276.382 198.668L276.254 198.883ZM283.56 208.834L283.467 209.066L283.915 209.245L283.803 208.776L283.56 208.834ZM282.444 208.387L282.351 208.619L282.351 208.619L282.444 208.387ZM281.406 208.832L281.174 208.739V208.739L281.406 208.832ZM281.852 209.87L281.759 210.103L281.759 210.103L281.852 209.87ZM283.886 210.684L284.134 210.655L284.117 210.507L283.978 210.452L283.886 210.684ZM283.141 217.728L282.954 217.894L283.239 218.214L283.377 217.808L283.141 217.728ZM282.346 216.833L282.532 216.667L282.532 216.666L282.346 216.833ZM281.219 216.766L281.053 216.58L281.053 216.58L281.219 216.766ZM281.152 217.894L281.339 217.728L281.339 217.728L281.152 217.894ZM282.471 219.377L282.697 219.484L282.768 219.335L282.658 219.211L282.471 219.377ZM277.607 225.34L277.407 225.19L277.757 225.54L277.607 225.34ZM278.951 213.257L278.717 213.17L278.681 213.266L278.723 213.359L278.951 213.257ZM278.957 213.24L279.192 213.327L279.193 213.324L278.957 213.24ZM279.706 211.144L279.471 211.06L279.471 211.06L279.706 211.144ZM279.222 210.123L279.138 210.359L279.138 210.359L279.222 210.123ZM278.203 210.607L278.438 210.691L278.438 210.691L278.203 210.607ZM277.915 211.412L277.709 211.554L277.985 211.958L278.15 211.496L277.915 211.412ZM269.218 207.85L269.421 207.995L269.669 207.65L269.247 207.601L269.218 207.85ZM267.526 210.211L267.729 210.357L267.729 210.356L267.526 210.211ZM267.709 211.325L267.563 211.528L267.564 211.528L267.709 211.325ZM268.823 211.141L268.62 210.995L268.62 210.996L268.823 211.141ZM270.934 208.196L271.004 207.956L270.834 207.907L270.731 208.051L270.934 208.196ZM276.663 223.912L276.457 224.053L276.666 224.358L276.871 224.051L276.663 223.912ZM275.97 222.901L276.176 222.759L276.176 222.759L275.97 222.901ZM274.86 222.694L275.001 222.9L275.001 222.9L274.86 222.694ZM274.652 223.804L274.446 223.945L274.446 223.945L274.652 223.804ZM275.626 225.224L275.809 225.394L275.946 225.248L275.832 225.083L275.626 225.224ZM272.162 227.682L272.023 227.89L272.137 227.966L272.262 227.911L272.162 227.682ZM265.894 220.422L265.694 220.274L265.606 220.392L265.667 220.526L265.894 220.422ZM267.069 218.837L267.27 218.986L267.27 218.985L267.069 218.837ZM266.903 217.72L267.052 217.519L267.051 217.518L266.903 217.72ZM265.786 217.886L265.585 217.737L265.585 217.737L265.786 217.886ZM265.205 218.671L264.968 218.75L265.12 219.205L265.405 218.82L265.205 218.671ZM264.133 212.107L264.383 212.102V212.102L264.133 212.107ZM265.582 202.464L265.817 202.55L265.817 202.549L265.582 202.464ZM265.103 201.441L265.188 201.206L265.187 201.206L265.103 201.441ZM264.08 201.919L264.315 202.005L264.315 202.004L264.08 201.919ZM262.893 207.099L262.694 207.25L263.056 207.726L263.14 207.134L262.893 207.099ZM261.274 204.969L261.075 205.12L261.075 205.121L261.274 204.969ZM260.155 204.817L260.004 204.618L260.004 204.618L260.155 204.817ZM260.003 205.936L259.804 206.087L259.804 206.087L260.003 205.936ZM262.532 209.263L262.731 209.112L262.731 209.111L262.532 209.263ZM262.647 209.385L262.896 209.403L262.905 209.278L262.81 209.196L262.647 209.385ZM266.245 224.162L266.292 224.407L266.674 224.334L266.449 224.017L266.245 224.162ZM265.879 224.231L265.832 223.986L265.832 223.986L265.879 224.231ZM265.244 225.165L264.998 225.212L264.998 225.212L265.244 225.165ZM266.178 225.8L266.224 226.046L266.225 226.046L266.178 225.8ZM267.357 225.576L267.546 225.412L267.451 225.303L267.31 225.33L267.357 225.576ZM270.276 228.297L270.33 228.541L270.857 228.424L270.427 228.097L270.276 228.297ZM268.114 228.542L268.115 228.792L268.116 228.792L268.114 228.542ZM267.936 228.542L267.933 228.792L267.935 228.792L267.936 228.542ZM259.645 224.282L259.446 224.131L259.333 224.279L259.443 224.43L259.645 224.282ZM260.476 223.186L260.277 223.035L260.277 223.035L260.476 223.186ZM260.323 222.067L260.474 221.868L260.474 221.868L260.323 222.067ZM259.204 222.221L259.005 222.069L259.005 222.07L259.204 222.221ZM258.749 222.82L258.526 222.932L258.706 223.29L258.948 222.971L258.749 222.82ZM259.505 212.231L259.71 212.374L259.71 212.374L259.505 212.231ZM259.307 211.119L259.45 210.914L259.45 210.914L259.307 211.119ZM258.195 211.317L258.4 211.46L258.4 211.46L258.195 211.317ZM257.222 212.982L257.04 213.154L257.29 213.417L257.447 213.09L257.222 212.982ZM256.976 212.722L256.794 212.894L256.794 212.894L256.976 212.722ZM255.848 212.691L255.676 212.509L255.676 212.51L255.848 212.691ZM255.817 213.82L255.999 213.648L255.999 213.648L255.817 213.82ZM256.578 214.623L256.817 214.697L256.86 214.557L256.759 214.451L256.578 214.623ZM258.443 225.341L258.292 225.541L258.643 225.191L258.443 225.341ZM252.227 214.923L252.029 214.77L251.964 214.854L251.98 214.959L252.227 214.923ZM254.283 212.262L254.085 212.109L254.085 212.109L254.283 212.262ZM254.14 211.142L253.986 211.339L253.987 211.34L254.14 211.142ZM253.02 211.286L253.218 211.438L253.218 211.438L253.02 211.286ZM252.055 212.535L251.805 212.534L251.803 213.269L252.253 212.687L252.055 212.535ZM265.742 196.764L265.707 196.517L265.707 196.517L265.742 196.764ZM266.42 195.861L266.667 195.825L266.667 195.825L266.42 195.861ZM265.516 195.184L265.551 195.431L265.553 195.431L265.516 195.184ZM253.652 202.511H253.402V203.302L253.856 202.654L253.652 202.511ZM252.055 205.29L252.282 205.394L252.305 205.344V205.29H252.055ZM250.592 214.754L250.842 214.738L250.841 214.73L250.841 214.723L250.592 214.754ZM250.605 214.851L250.853 214.818L250.852 214.811L250.85 214.804L250.605 214.851ZM254.473 223.739L254.316 223.934L254.666 223.58L254.473 223.739ZM250.641 219.722L250.405 219.803L250.417 219.839L250.44 219.87L250.641 219.722ZM250.373 219.349L250.169 219.492L250.191 219.524L250.221 219.547L250.373 219.349ZM246.534 208.718L246.326 208.579L246.278 208.651L246.285 208.738L246.534 208.718ZM249.525 204.232L249.317 204.093L249.317 204.093L249.525 204.232ZM249.304 203.125L249.442 202.916L249.442 202.916L249.304 203.125ZM248.196 203.346L248.404 203.485L248.405 203.484L248.196 203.346ZM246.492 205.903L246.242 205.891L246.198 206.795L246.7 206.042L246.492 205.903ZM248.932 196.942L248.827 196.715L248.75 196.751L248.711 196.825L248.932 196.942ZM253.758 194.695L253.863 194.921L253.863 194.921L253.758 194.695ZM254.145 193.633L253.918 193.739L253.918 193.739L254.145 193.633ZM253.084 193.247L252.979 193.02L252.979 193.02L253.084 193.247ZM250.462 194.468L250.259 194.322L249.704 195.096L250.567 194.694L250.462 194.468ZM252.937 191.583L253.112 191.762L253.112 191.762L252.937 191.583ZM252.948 190.454L252.769 190.629L252.769 190.629L252.948 190.454ZM251.819 190.443L251.644 190.264L251.644 190.264L251.819 190.443ZM249.479 193.107L249.231 193.072L249.679 193.257L249.479 193.107ZM249.853 190.495L250.1 190.53L250.1 190.53L249.853 190.495ZM249.175 189.591L249.21 189.344L249.209 189.344L249.175 189.591ZM248.271 190.269L248.024 190.233L248.024 190.233L248.271 190.269ZM247.41 196.289L247.163 196.253L247.163 196.253L247.41 196.289ZM247.403 196.419L247.625 196.534L247.654 196.477L247.652 196.414L247.403 196.419ZM244.96 204.903L244.73 205.001L245.209 204.924L244.96 204.903ZM244.005 202.676L243.775 202.774L243.775 202.774L244.005 202.676ZM242.957 202.257L243.055 202.486L243.056 202.486L242.957 202.257ZM242.537 203.305L242.767 203.207L242.767 203.207L242.537 203.305ZM244.933 208.895L245.163 208.796L245.163 208.796L244.933 208.895ZM244.949 208.931L245.199 208.91L245.195 208.863L245.174 208.821L244.949 208.931ZM247.361 217.428L247.227 217.639L247.997 218.13L247.584 217.315L247.361 217.428ZM245.185 216.044L245.319 215.833L245.319 215.833L245.185 216.044ZM244.082 216.289L244.293 216.423L244.293 216.423L244.082 216.289ZM244.327 217.391L244.461 217.18L244.461 217.18L244.327 217.391ZM249.25 220.524L249.453 220.377L249.425 220.339L249.385 220.313L249.25 220.524ZM256.774 227.218L256.774 227.468L257.731 227.466L256.896 226.999L256.774 227.218ZM254.165 227.223L254.166 227.473H254.166L254.165 227.223ZM253.369 228.023L253.119 228.024L253.369 228.023ZM254.169 228.82V229.07H254.169L254.169 228.82ZM260.249 228.807L260.249 228.557H260.249L260.249 228.807ZM268.001 229.889C265.323 229.887 262.752 229.422 260.362 228.571L260.195 229.042C262.637 229.912 265.265 230.386 268 230.389L268.001 229.889ZM268 230.389C268.008 230.389 268.016 230.389 268.025 230.389V229.889C268.017 229.889 268.009 229.889 268.001 229.889L268 230.389ZM268.025 230.389C268.032 230.389 268.04 230.389 268.048 230.389L268.048 229.889C268.04 229.889 268.032 229.889 268.025 229.889V230.389ZM275.687 228.571C273.297 229.422 270.726 229.887 268.048 229.889L268.048 230.389C270.784 230.387 273.412 229.912 275.855 229.042L275.687 228.571ZM275.762 229.057C275.774 229.057 275.787 229.057 275.799 229.057L275.8 228.557C275.794 228.557 275.787 228.557 275.78 228.557L275.762 229.057ZM275.799 229.057L281.88 229.07L281.881 228.57L275.8 228.557L275.799 229.057ZM281.88 229.07H281.882V228.57H281.88V229.07ZM281.882 229.07C282.46 229.07 282.93 228.602 282.931 228.024L282.431 228.023C282.43 228.325 282.185 228.57 281.882 228.57V229.07ZM282.931 228.024C282.932 227.445 282.464 226.974 281.884 226.973L281.883 227.473C282.186 227.474 282.431 227.72 282.431 228.023L282.931 228.024ZM281.884 226.973L279.276 226.968L279.275 227.468L281.883 227.473L281.884 226.973ZM286.597 220.377C284.634 223.091 282.092 225.359 279.154 226.999L279.398 227.436C282.4 225.76 284.997 223.442 287.002 220.67L286.597 220.377ZM291.588 217.18L286.665 220.313L286.934 220.734L291.856 217.602L291.588 217.18ZM291.756 216.423C291.919 216.679 291.843 217.018 291.588 217.18L291.856 217.602C292.345 217.292 292.489 216.643 292.178 216.155L291.756 216.423ZM290.998 216.255C291.255 216.091 291.594 216.168 291.756 216.423L292.178 216.155C291.868 215.666 291.22 215.521 290.73 215.833L290.998 216.255ZM288.823 217.639L290.998 216.255L290.73 215.833L288.555 217.217L288.823 217.639ZM290.851 208.91C290.6 211.912 289.767 214.752 288.466 217.315L288.912 217.541C290.241 214.922 291.092 212.02 291.349 208.952L290.851 208.91ZM290.887 208.796C290.883 208.805 290.879 208.813 290.875 208.821L291.325 209.041C291.332 209.025 291.34 209.009 291.346 208.993L290.887 208.796ZM293.282 203.207L290.887 208.796L291.346 208.993L293.742 203.404L293.282 203.207ZM292.994 202.487C293.273 202.606 293.402 202.928 293.282 203.207L293.742 203.404C293.97 202.871 293.723 202.255 293.191 202.027L292.994 202.487ZM292.275 202.774C292.393 202.496 292.719 202.368 292.994 202.486L293.192 202.027C292.663 201.799 292.042 202.045 291.815 202.578L292.275 202.774ZM291.32 205.001L292.274 202.774L291.815 202.577L290.86 204.804L291.32 205.001ZM288.425 196.508C289.75 199.093 290.579 201.94 290.841 204.924L291.339 204.88C291.072 201.832 290.224 198.922 288.87 196.28L288.425 196.508ZM288.897 196.392C288.897 196.346 288.893 196.3 288.887 196.253L288.392 196.324C288.395 196.348 288.397 196.372 288.397 196.396L288.897 196.392ZM288.887 196.253L288.026 190.233L287.531 190.304L288.392 196.324L288.887 196.253ZM288.026 190.233C287.944 189.66 287.413 189.262 286.839 189.344L286.91 189.839C287.211 189.796 287.488 190.004 287.531 190.304L288.026 190.233ZM286.839 189.344C286.266 189.426 285.868 189.957 285.949 190.53L286.444 190.459C286.402 190.16 286.61 189.882 286.91 189.839L286.839 189.344ZM285.949 190.53L286.318 193.108L286.813 193.037L286.444 190.459L285.949 190.53ZM279.829 187.348C282.421 188.91 284.623 190.91 286.366 193.223L286.765 192.922C284.984 190.557 282.734 188.515 280.087 186.92L279.829 187.348ZM279.076 187.535C279.232 187.276 279.57 187.192 279.828 187.348L280.087 186.92C279.592 186.621 278.946 186.781 278.648 187.277L279.076 187.535ZM279.263 188.288C279.003 188.131 278.92 187.795 279.076 187.535L278.648 187.277C278.349 187.773 278.509 188.417 279.005 188.716L279.263 188.288ZM285.82 194.336C284.111 191.939 281.898 189.875 279.263 188.288L279.005 188.716C281.582 190.268 283.744 192.285 285.413 194.626L285.82 194.336ZM285.722 194.254L283.071 193.02L282.86 193.473L285.511 194.708L285.722 194.254ZM283.07 193.02C282.543 192.776 281.922 193.004 281.678 193.528L282.132 193.739C282.259 193.465 282.583 193.345 282.861 193.474L283.07 193.02ZM281.678 193.528C281.434 194.053 281.661 194.677 282.186 194.921L282.397 194.468C282.122 194.34 282.004 194.014 282.132 193.739L281.678 193.528ZM282.186 194.921L287.029 197.177L287.24 196.723L282.397 194.468L282.186 194.921ZM289.808 205.891C289.651 202.667 288.802 199.591 287.356 196.834L286.913 197.066C288.325 199.759 289.155 202.764 289.308 205.916L289.808 205.891ZM287.645 203.485L289.35 206.042L289.766 205.765L288.061 203.207L287.645 203.485ZM286.885 203.333C287.137 203.164 287.477 203.232 287.645 203.485L288.061 203.207C287.74 202.725 287.089 202.595 286.607 202.917L286.885 203.333ZM286.732 204.093C286.564 203.841 286.632 203.5 286.884 203.333L286.607 202.916C286.125 203.237 285.995 203.889 286.316 204.371L286.732 204.093ZM289.723 208.579L286.732 204.093L286.316 204.371L289.307 208.856L289.723 208.579ZM285.881 219.492C288.055 216.398 289.446 212.717 289.764 208.738L289.266 208.698C288.955 212.585 287.596 216.182 285.472 219.204L285.881 219.492ZM285.644 219.804C285.678 219.704 285.741 219.614 285.829 219.547L285.525 219.15C285.356 219.279 285.236 219.452 285.171 219.642L285.644 219.804ZM281.733 223.934C283.192 222.752 284.496 221.386 285.609 219.871L285.206 219.575C284.118 221.055 282.844 222.39 281.418 223.546L281.733 223.934ZM281.768 223.899C284.312 220.818 285.842 216.87 285.842 212.572H285.342C285.342 216.75 283.855 220.586 281.383 223.581L281.768 223.899ZM285.842 212.572C285.842 209.122 284.874 205.849 283.111 203.058L282.688 203.325C284.401 206.036 285.342 209.216 285.342 212.572H285.842ZM283.149 203.213L283.442 199.889L282.944 199.845L282.651 203.169L283.149 203.213ZM283.442 199.889C283.493 199.312 283.066 198.803 282.49 198.752L282.446 199.25C282.747 199.277 282.971 199.543 282.944 199.845L283.442 199.889ZM282.486 198.752C281.904 198.709 281.404 199.127 281.353 199.704L281.851 199.748C281.878 199.448 282.135 199.227 282.449 199.25L282.486 198.752ZM281.353 199.704L281.219 201.22L281.717 201.264L281.851 199.748L281.353 199.704ZM281.659 201.08C280.416 199.613 278.92 198.333 277.206 197.301L276.948 197.729C278.616 198.734 280.07 199.978 281.278 201.403L281.659 201.08ZM277.206 197.301C276.711 197.002 276.065 197.161 275.767 197.658L276.196 197.915C276.351 197.656 276.689 197.573 276.948 197.729L277.206 197.301ZM275.767 197.658C275.468 198.154 275.628 198.798 276.125 199.097L276.382 198.668C276.123 198.512 276.039 198.175 276.196 197.916L275.767 197.658ZM276.125 199.097C279.817 201.321 282.356 204.838 283.317 208.891L283.803 208.776C282.811 204.592 280.189 200.962 276.383 198.668L276.125 199.097ZM283.653 208.602L282.537 208.155L282.351 208.619L283.467 209.066L283.653 208.602ZM282.537 208.155C282.004 207.942 281.39 208.201 281.174 208.739L281.639 208.925C281.751 208.644 282.073 208.508 282.351 208.619L282.537 208.155ZM281.174 208.739C280.959 209.278 281.222 209.887 281.759 210.103L281.945 209.638C281.663 209.525 281.526 209.206 281.639 208.925L281.174 208.739ZM281.759 210.103L283.793 210.916L283.978 210.452L281.945 209.638L281.759 210.103ZM283.637 210.713C283.708 211.324 283.745 211.945 283.745 212.572H284.245C284.245 211.926 284.207 211.286 284.134 210.655L283.637 210.713ZM283.745 212.572C283.745 214.347 283.449 216.054 282.904 217.647L283.377 217.808C283.94 216.165 284.245 214.403 284.245 212.572H283.745ZM283.328 217.561L282.532 216.667L282.159 216.999L282.954 217.894L283.328 217.561ZM282.532 216.666C282.147 216.234 281.485 216.195 281.053 216.58L281.385 216.953C281.611 216.752 281.957 216.772 282.159 216.999L282.532 216.666ZM281.053 216.58C280.62 216.965 280.581 217.627 280.966 218.06L281.339 217.728C281.138 217.501 281.158 217.155 281.385 216.953L281.053 216.58ZM280.966 218.06L282.284 219.544L282.658 219.211L281.339 217.728L280.966 218.06ZM282.245 219.271C281.146 221.595 279.493 223.609 277.457 225.141L277.757 225.54C279.857 223.96 281.563 221.883 282.697 219.484L282.245 219.271ZM277.807 225.491C279.342 223.447 280.252 220.909 280.252 218.162H279.752C279.752 220.796 278.879 223.23 277.407 225.19L277.807 225.491ZM280.252 218.162C280.252 216.379 279.869 214.683 279.179 213.154L278.723 213.359C279.384 214.826 279.752 216.451 279.752 218.162H280.252ZM279.186 213.343L279.192 213.327L278.723 213.154L278.717 213.17L279.186 213.343ZM279.193 213.324L279.941 211.228L279.471 211.06L278.722 213.156L279.193 213.324ZM279.941 211.229C280.137 210.683 279.852 210.083 279.307 209.888L279.138 210.359C279.424 210.461 279.573 210.775 279.471 211.06L279.941 211.229ZM279.307 209.888C278.762 209.693 278.161 209.978 277.967 210.523L278.438 210.691C278.539 210.406 278.854 210.257 279.138 210.359L279.307 209.888ZM277.967 210.523L277.679 211.328L278.15 211.496L278.438 210.691L277.967 210.523ZM278.121 211.271C275.917 208.052 272.214 205.934 268.025 205.934V206.434C272.042 206.434 275.594 208.464 277.709 211.554L278.121 211.271ZM268.025 205.934C267.445 205.934 266.976 206.404 266.976 206.983H267.476C267.476 206.68 267.722 206.434 268.025 206.434V205.934ZM266.976 206.983C266.976 207.562 267.445 208.031 268.025 208.031V207.531C267.722 207.531 267.476 207.286 267.476 206.983H266.976ZM268.025 208.031C268.419 208.031 268.807 208.054 269.189 208.098L269.247 207.601C268.845 207.555 268.438 207.531 268.025 207.531V208.031ZM269.015 207.704L267.323 210.065L267.729 210.356L269.421 207.995L269.015 207.704ZM267.323 210.065C266.985 210.536 267.093 211.191 267.563 211.528L267.855 211.122C267.609 210.946 267.552 210.603 267.729 210.357L267.323 210.065ZM267.564 211.528C267.749 211.661 267.963 211.724 268.174 211.724V211.224C268.063 211.224 267.952 211.191 267.855 211.122L267.564 211.528ZM268.174 211.724C268.5 211.724 268.822 211.573 269.027 211.287L268.62 210.996C268.513 211.145 268.345 211.224 268.174 211.224V211.724ZM269.027 211.287L271.137 208.342L270.731 208.051L268.62 210.995L269.027 211.287ZM270.864 208.436C275.072 209.667 278.155 213.562 278.155 218.162H278.655C278.655 213.333 275.42 209.247 271.004 207.956L270.864 208.436ZM278.155 218.162C278.155 220.236 277.529 222.166 276.456 223.773L276.871 224.051C277.998 222.364 278.655 220.338 278.655 218.162H278.155ZM276.87 223.771L276.176 222.759L275.764 223.042L276.457 224.053L276.87 223.771ZM276.176 222.759C275.849 222.282 275.196 222.159 274.718 222.487L275.001 222.9C275.251 222.728 275.592 222.792 275.764 223.042L276.176 222.759ZM274.718 222.487C274.24 222.815 274.119 223.467 274.446 223.945L274.859 223.662C274.687 223.412 274.751 223.071 275.001 222.9L274.718 222.487ZM274.446 223.945L275.42 225.365L275.832 225.083L274.858 223.662L274.446 223.945ZM275.443 225.054C274.499 226.069 273.35 226.891 272.062 227.453L272.262 227.911C273.614 227.322 274.819 226.459 275.809 225.394L275.443 225.054ZM272.302 227.474C269.501 225.595 267.439 223.203 266.122 220.319L265.667 220.526C267.025 223.5 269.15 225.962 272.023 227.89L272.302 227.474ZM266.095 220.571L267.27 218.986L266.868 218.688L265.694 220.274L266.095 220.571ZM267.27 218.985C267.614 218.52 267.517 217.864 267.052 217.519L266.754 217.921C266.997 218.101 267.048 218.445 266.868 218.688L267.27 218.985ZM267.051 217.518C266.585 217.176 265.93 217.272 265.585 217.737L265.987 218.035C266.167 217.792 266.51 217.741 266.755 217.921L267.051 217.518ZM265.585 217.737L265.004 218.522L265.405 218.82L265.987 218.035L265.585 217.737ZM265.442 218.591C264.785 216.63 264.43 214.466 264.383 212.102L263.883 212.112C263.931 214.52 264.293 216.735 264.968 218.75L265.442 218.591ZM264.383 212.102C264.33 209.484 264.685 207.104 265.056 205.372C265.241 204.506 265.43 203.804 265.574 203.316C265.645 203.072 265.705 202.882 265.748 202.752C265.769 202.687 265.786 202.637 265.798 202.603C265.804 202.586 265.808 202.573 265.812 202.564C265.813 202.559 265.814 202.556 265.815 202.553C265.816 202.551 265.817 202.55 265.817 202.55L265.347 202.379C265.327 202.434 263.776 206.781 263.883 212.112L264.383 212.102ZM265.817 202.549C266.013 202.006 265.733 201.404 265.188 201.206L265.017 201.676C265.302 201.78 265.449 202.095 265.346 202.38L265.817 202.549ZM265.187 201.206C264.646 201.011 264.044 201.289 263.846 201.834L264.315 202.004C264.418 201.721 264.733 201.574 265.018 201.677L265.187 201.206ZM263.846 201.833C263.819 201.906 263.086 203.986 262.645 207.064L263.14 207.134C263.575 204.099 264.298 202.053 264.315 202.005L263.846 201.833ZM263.092 206.948L261.473 204.818L261.075 205.121L262.694 207.25L263.092 206.948ZM261.473 204.818C261.124 204.357 260.466 204.267 260.004 204.618L260.306 205.016C260.549 204.832 260.893 204.88 261.075 205.12L261.473 204.818ZM260.004 204.618C259.543 204.968 259.454 205.626 259.804 206.087L260.202 205.784C260.019 205.543 260.066 205.199 260.306 205.016L260.004 204.618ZM259.804 206.087L262.333 209.414L262.731 209.111L260.202 205.784L259.804 206.087ZM262.333 209.414C262.378 209.473 262.429 209.527 262.483 209.574L262.81 209.196C262.781 209.171 262.755 209.143 262.731 209.112L262.333 209.414ZM262.397 209.367C262.08 213.787 262.605 219.464 266.041 224.306L266.449 224.017C263.107 219.307 262.583 213.764 262.896 209.403L262.397 209.367ZM266.198 223.916L265.832 223.986L265.925 224.477L266.292 224.407L266.198 223.916ZM265.832 223.986C265.264 224.094 264.89 224.643 264.998 225.212L265.49 225.118C265.433 224.821 265.628 224.534 265.926 224.477L265.832 223.986ZM264.998 225.212C265.095 225.715 265.534 226.064 266.028 226.064V225.564C265.77 225.564 265.54 225.381 265.49 225.118L264.998 225.212ZM266.028 226.064C266.093 226.064 266.159 226.058 266.224 226.046L266.133 225.554C266.097 225.561 266.061 225.564 266.028 225.564V226.064ZM266.225 226.046L267.404 225.821L267.31 225.33L266.131 225.555L266.225 226.046ZM267.168 225.739C268.012 226.711 268.992 227.636 270.125 228.496L270.427 228.097C269.321 227.259 268.367 226.357 267.546 225.412L267.168 225.739ZM270.222 228.052C269.542 228.203 268.836 228.286 268.112 228.292L268.116 228.792C268.875 228.786 269.616 228.699 270.33 228.541L270.222 228.052ZM268.025 228.792C268.055 228.792 268.085 228.792 268.115 228.792L268.113 228.292C268.083 228.292 268.054 228.292 268.025 228.292V228.792ZM267.935 228.792C267.965 228.792 267.995 228.792 268.025 228.792V228.292C267.995 228.292 267.966 228.292 267.937 228.292L267.935 228.792ZM267.938 228.292C264.619 228.264 261.676 226.632 259.847 224.134L259.443 224.43C261.362 227.049 264.45 228.763 267.933 228.792L267.938 228.292ZM259.844 224.433L260.676 223.337L260.277 223.035L259.446 224.131L259.844 224.433ZM260.676 223.337C261.026 222.876 260.935 222.218 260.474 221.868L260.172 222.266C260.413 222.45 260.46 222.794 260.277 223.035L260.676 223.337ZM260.474 221.868C260.01 221.517 259.355 221.609 259.005 222.069L259.403 222.372C259.586 222.13 259.929 222.082 260.172 222.266L260.474 221.868ZM259.005 222.07L258.55 222.669L258.948 222.971L259.403 222.372L259.005 222.07ZM258.972 222.707C258.283 221.34 257.894 219.796 257.894 218.162H257.394C257.394 219.876 257.802 221.497 258.526 222.932L258.972 222.707ZM257.894 218.162C257.894 216.077 258.522 214.076 259.71 212.374L259.3 212.088C258.053 213.874 257.394 215.975 257.394 218.162H257.894ZM259.71 212.374C260.041 211.899 259.925 211.246 259.45 210.914L259.164 211.324C259.412 211.497 259.473 211.839 259.3 212.088L259.71 212.374ZM259.45 210.914C258.973 210.581 258.32 210.699 257.99 211.174L258.4 211.46C258.573 211.211 258.914 211.15 259.164 211.324L259.45 210.914ZM257.99 211.174C257.611 211.717 257.279 212.285 256.996 212.873L257.447 213.09C257.718 212.526 258.036 211.981 258.4 211.46L257.99 211.174ZM257.403 212.81L257.157 212.55L256.794 212.894L257.04 213.154L257.403 212.81ZM257.158 212.551C256.759 212.128 256.096 212.114 255.676 212.509L256.019 212.873C256.24 212.665 256.587 212.674 256.794 212.894L257.158 212.551ZM255.676 212.51C255.255 212.908 255.237 213.572 255.636 213.992L255.999 213.648C255.79 213.428 255.799 213.081 256.019 212.873L255.676 212.51ZM255.636 213.992L256.396 214.795L256.759 214.451L255.999 213.648L255.636 213.992ZM256.339 214.549C255.981 215.709 255.797 216.924 255.797 218.162H256.297C256.297 216.973 256.474 215.808 256.817 214.697L256.339 214.549ZM255.797 218.162C255.797 220.909 256.708 223.447 258.243 225.491L258.643 225.191C257.17 223.231 256.297 220.796 256.297 218.162H255.797ZM258.593 225.141C255.361 222.709 253.093 219.062 252.475 214.886L251.98 214.959C252.618 219.27 254.959 223.033 258.292 225.541L258.593 225.141ZM252.425 215.076L254.481 212.415L254.085 212.109L252.029 214.77L252.425 215.076ZM254.481 212.415C254.835 211.957 254.751 211.298 254.292 210.944L253.987 211.34C254.227 211.525 254.271 211.869 254.085 212.109L254.481 212.415ZM254.293 210.944C253.834 210.587 253.173 210.676 252.822 211.133L253.218 211.438C253.402 211.199 253.747 211.153 253.986 211.339L254.293 210.944ZM252.822 211.133L251.857 212.382L252.253 212.687L253.218 211.438L252.822 211.133ZM252.305 212.535C252.323 204.779 258.11 198.109 265.778 197.012L265.707 196.517C257.793 197.649 251.824 204.53 251.805 212.534L252.305 212.535ZM265.778 197.012C266.351 196.93 266.749 196.399 266.667 195.825L266.172 195.896C266.215 196.196 266.007 196.474 265.707 196.517L265.778 197.012ZM266.667 195.825C266.586 195.254 266.055 194.849 265.479 194.936L265.553 195.431C265.85 195.386 266.129 195.595 266.172 195.896L266.667 195.825ZM265.481 194.936C260.486 195.651 256.196 198.45 253.447 202.367L253.856 202.654C256.53 198.844 260.7 196.125 265.551 195.431L265.481 194.936ZM253.902 202.511V200.595H253.402V202.511H253.902ZM253.902 200.595C253.902 200.016 253.433 199.546 252.853 199.546V200.046C253.156 200.046 253.402 200.292 253.402 200.595H253.902ZM252.853 199.546C252.274 199.546 251.805 200.016 251.805 200.595H252.305C252.305 200.292 252.55 200.046 252.853 200.046V199.546ZM251.805 200.595V205.29H252.305V200.595H251.805ZM251.828 205.185C250.786 207.45 250.208 209.957 250.208 212.572H250.708C250.708 210.031 251.27 207.595 252.282 205.394L251.828 205.185ZM250.208 212.572C250.208 213.321 250.254 214.06 250.344 214.785L250.841 214.723C250.753 214.018 250.708 213.301 250.708 212.572H250.208ZM250.343 214.77C250.346 214.813 250.351 214.855 250.359 214.897L250.85 214.804C250.846 214.782 250.843 214.76 250.842 214.738L250.343 214.77ZM250.357 214.883C250.799 218.28 252.201 221.379 254.281 223.898L254.666 223.58C252.644 221.131 251.282 218.119 250.853 214.818L250.357 214.883ZM250.44 219.87C251.553 221.385 252.857 222.751 254.316 223.934L254.631 223.545C253.205 222.39 251.931 221.054 250.843 219.574L250.44 219.87ZM250.221 219.547C250.309 219.614 250.371 219.704 250.405 219.803L250.878 219.641C250.813 219.452 250.694 219.279 250.525 219.15L250.221 219.547ZM246.285 208.738C246.604 212.717 247.995 216.399 250.169 219.492L250.578 219.205C248.454 216.182 247.095 212.586 246.784 208.698L246.285 208.738ZM246.742 208.856L249.733 204.37L249.317 204.093L246.326 208.579L246.742 208.856ZM249.733 204.371C250.055 203.889 249.925 203.237 249.442 202.916L249.165 203.333C249.417 203.5 249.485 203.841 249.317 204.093L249.733 204.371ZM249.442 202.916C248.96 202.595 248.309 202.725 247.988 203.208L248.405 203.484C248.572 203.233 248.912 203.164 249.165 203.333L249.442 202.916ZM247.988 203.207L246.284 205.765L246.7 206.042L248.404 203.485L247.988 203.207ZM248.711 196.825C247.245 199.604 246.399 202.682 246.242 205.891L246.741 205.915C246.894 202.779 247.721 199.772 249.153 197.059L248.711 196.825ZM249.038 197.169L253.863 194.921L253.652 194.468L248.827 196.715L249.038 197.169ZM253.863 194.921C254.389 194.677 254.616 194.053 254.371 193.528L253.918 193.739C254.046 194.014 253.927 194.34 253.652 194.468L253.863 194.921ZM254.371 193.528C254.128 193.004 253.505 192.776 252.979 193.02L253.189 193.473C253.466 193.345 253.791 193.465 253.918 193.739L254.371 193.528ZM252.979 193.02L250.356 194.241L250.567 194.694L253.19 193.473L252.979 193.02ZM252.762 191.405C251.835 192.313 250.999 193.289 250.259 194.322L250.665 194.613C251.388 193.604 252.205 192.65 253.112 191.762L252.762 191.405ZM252.769 190.629C252.981 190.846 252.978 191.193 252.762 191.405L253.112 191.762C253.526 191.356 253.531 190.693 253.126 190.279L252.769 190.629ZM251.993 190.622C252.211 190.409 252.558 190.413 252.769 190.629L253.127 190.28C252.721 189.865 252.058 189.86 251.644 190.264L251.993 190.622ZM249.679 193.257C250.376 192.331 251.148 191.449 251.994 190.621L251.644 190.264C250.781 191.11 249.991 192.01 249.279 192.957L249.679 193.257ZM249.726 193.143L250.1 190.53L249.605 190.459L249.231 193.072L249.726 193.143ZM250.1 190.53C250.182 189.957 249.784 189.426 249.21 189.344L249.14 189.839C249.44 189.882 249.648 190.159 249.605 190.459L250.1 190.53ZM249.209 189.344C248.638 189.266 248.106 189.659 248.024 190.233L248.519 190.304C248.561 190.007 248.838 189.798 249.141 189.839L249.209 189.344ZM248.024 190.233L247.163 196.253L247.658 196.324L248.519 190.304L248.024 190.233ZM247.163 196.253C247.155 196.311 247.151 196.368 247.153 196.425L247.652 196.414C247.652 196.384 247.654 196.354 247.658 196.324L247.163 196.253ZM245.209 204.924C245.47 201.965 246.292 199.128 247.625 196.534L247.18 196.305C245.818 198.957 244.977 201.857 244.711 204.881L245.209 204.924ZM245.189 204.804L244.235 202.577L243.775 202.774L244.73 205.001L245.189 204.804ZM244.235 202.577C244.007 202.044 243.387 201.798 242.858 202.027L243.056 202.486C243.331 202.367 243.656 202.495 243.775 202.774L244.235 202.577ZM242.859 202.027C242.326 202.255 242.079 202.871 242.308 203.404L242.767 203.207C242.648 202.928 242.777 202.606 243.055 202.486L242.859 202.027ZM242.308 203.404L244.703 208.993L245.163 208.796L242.767 203.207L242.308 203.404ZM244.703 208.993C244.71 209.009 244.717 209.025 244.725 209.04L245.174 208.821C245.17 208.813 245.166 208.804 245.163 208.796L244.703 208.993ZM247.584 217.315C246.283 214.752 245.45 211.912 245.199 208.91L244.7 208.951C244.957 212.02 245.808 214.922 247.138 217.542L247.584 217.315ZM245.051 216.255L247.227 217.639L247.495 217.218L245.319 215.833L245.051 216.255ZM244.293 216.423C244.456 216.167 244.794 216.092 245.051 216.255L245.319 215.833C244.83 215.523 244.183 215.665 243.871 216.155L244.293 216.423ZM244.461 217.18C244.206 217.018 244.13 216.679 244.293 216.423L243.871 216.155C243.56 216.643 243.704 217.292 244.193 217.602L244.461 217.18ZM249.385 220.313L244.461 217.18L244.193 217.602L249.116 220.735L249.385 220.313ZM256.896 226.999C253.958 225.359 251.416 223.091 249.453 220.377L249.048 220.67C251.053 223.443 253.65 225.76 256.652 227.436L256.896 226.999ZM256.773 226.968L254.165 226.973L254.166 227.473L256.774 227.468L256.773 226.968ZM254.165 226.973C253.585 226.974 253.118 227.445 253.119 228.024L253.619 228.023C253.618 227.72 253.863 227.474 254.166 227.473L254.165 226.973ZM253.119 228.024C253.12 228.602 253.589 229.07 254.167 229.07V228.57C253.864 228.57 253.619 228.326 253.619 228.023L253.119 228.024ZM254.167 229.07H254.169V228.57H254.167V229.07ZM254.169 229.07L260.25 229.057L260.249 228.557L254.168 228.57L254.169 229.07ZM260.25 229.057C260.263 229.057 260.275 229.057 260.288 229.057L260.269 228.557C260.262 228.557 260.256 228.557 260.249 228.557L260.25 229.057Z" fill="black"/>
<path d="M309.87 9.92563C317.166 26.6049 309.559 46.0404 292.88 53.3361C276.2 60.6318 256.765 53.0248 249.469 36.3456C242.174 19.6663 249.781 0.230777 266.46 -7.06489C283.139 -14.3606 302.575 -6.75364 309.87 9.92563Z" fill="url(#paint0_linear_6694_4330)"/>
<path d="M266.549 13.4969C267.671 16.0628 266.501 19.053 263.935 20.1756C261.369 21.2982 258.379 20.1282 257.257 17.5623C256.134 14.9963 257.304 12.0062 259.87 10.8835C262.436 9.76089 265.426 10.9309 266.549 13.4969Z" fill="url(#paint1_linear_6694_4330)"/>
<path d="M297.519 0.0706824C298.164 0.81835 298.042 1.79606 297.248 2.25445C296.453 2.71284 295.286 2.47834 294.641 1.73067C293.997 0.983003 294.119 0.0052979 294.913 -0.453095C295.708 -0.911488 296.875 -0.676985 297.519 0.0706824Z" fill="url(#paint2_linear_6694_4330)"/>
<path d="M309.167 23.7626C310.17 24.1119 310.591 25.5204 310.108 26.9085C309.625 28.2966 308.42 29.1386 307.416 28.7893C306.413 28.44 305.991 27.0315 306.475 25.6434C306.958 24.2553 308.163 23.4132 309.167 23.7626Z" fill="url(#paint3_linear_6694_4330)"/>
<path d="M291.079 42.0748C291.787 45.7628 288.814 49.4338 284.438 50.2741C280.063 51.1145 275.942 48.806 275.233 45.118C274.525 41.4301 277.498 37.7591 281.873 36.9188C286.249 36.0784 290.37 38.3869 291.079 42.0748Z" fill="url(#paint4_linear_6694_4330)"/>
<path d="M245.565 27.9968C246.345 27.7593 247.763 30.147 248.732 33.3299C249.701 36.5128 249.855 39.2855 249.075 39.5229C248.295 39.7604 246.877 37.3727 245.908 34.1898C244.939 31.0069 244.785 28.2342 245.565 27.9968Z" fill="url(#paint5_linear_6694_4330)"/>
<path d="M246.59 27.681C247.935 27.2713 249.812 29.5193 250.781 32.7022C251.75 35.8851 251.445 38.7975 250.1 39.2072C248.754 39.617 246.877 37.3689 245.908 34.186C244.939 31.0032 245.244 28.0908 246.59 27.681Z" fill="url(#paint6_linear_6694_4330)"/>
<path d="M245.444 29.709C245.671 29.6399 246.405 31.391 247.084 33.6202C247.763 35.8493 248.129 37.7124 247.902 37.7815C247.675 37.8506 246.941 36.0995 246.262 33.8704C245.584 31.6412 245.217 29.7781 245.444 29.709Z" fill="#0C423A"/>
<path d="M273.368 54.9526C273.399 54.5208 276.119 54.2244 279.444 54.2905C282.769 54.3565 285.439 54.76 285.409 55.1917C285.378 55.6234 282.658 55.9198 279.333 55.8538C276.008 55.7878 273.338 55.3843 273.368 54.9526Z" fill="url(#paint7_linear_6694_4330)"/>
<path d="M273.408 54.3831C273.461 53.6381 276.199 53.0878 279.523 53.1538C282.848 53.2199 285.501 53.8773 285.448 54.6223C285.396 55.3672 282.658 55.9176 279.333 55.8516C276.008 55.7855 273.355 55.1281 273.408 54.3831Z" fill="url(#paint8_linear_6694_4330)"/>
<path d="M307.618 41.6323C306.97 41.3372 307.421 38.9537 308.626 36.3086C309.831 33.6635 311.332 31.7585 311.981 32.0536C312.629 32.3487 312.177 34.7322 310.973 37.3773C309.768 40.0224 308.266 41.9274 307.618 41.6323Z" fill="url(#paint9_linear_6694_4330)"/>
<path d="M306.767 41.2418C305.648 40.7326 305.718 38.1754 306.923 35.5303C308.128 32.8852 310.011 31.1538 311.129 31.6631C312.247 32.1723 312.177 34.7295 310.973 37.3746C309.768 40.0197 307.885 41.7511 306.767 41.2418Z" fill="url(#paint10_linear_6694_4330)"/>
<path d="M308.687 40.5795C308.499 40.4936 309.03 38.9222 309.874 37.0697C310.717 35.2172 311.554 33.785 311.743 33.8709C311.931 33.9567 311.4 35.5281 310.556 37.3807C309.713 39.2332 308.876 40.6654 308.687 40.5795Z" fill="#10463E"/>
<path d="M307.793 4.92145C307.427 5.17137 306.303 4.16096 305.283 2.66464C304.263 1.16832 303.733 -0.247279 304.1 -0.497197C304.466 -0.747114 305.59 0.263294 306.61 1.75961C307.63 3.25593 308.16 4.67154 307.793 4.92145Z" fill="url(#paint11_linear_6694_4330)"/>
<path d="M307.312 5.24827C306.679 5.67951 305.339 4.81613 304.319 3.31985C303.299 1.82357 302.985 0.261001 303.618 -0.170243C304.25 -0.601487 305.59 0.261896 306.61 1.75818C307.63 3.25446 307.944 4.81702 307.312 5.24827Z" fill="url(#paint12_linear_6694_4330)"/>
<path d="M307.578 4.0105C307.472 4.08321 306.806 3.29264 306.091 2.2447C305.377 1.19676 304.884 0.288292 304.991 0.215577C305.098 0.142863 305.763 0.933438 306.478 1.98138C307.192 3.02932 307.685 3.93778 307.578 4.0105Z" fill="#1A7A6C"/>
<path d="M287.259 18.7008C287.259 20.4513 285.84 21.8703 284.089 21.8703C282.339 21.8703 280.92 20.4513 280.92 18.7008C280.92 16.9503 282.339 15.5312 284.089 15.5312C285.84 15.5312 287.259 16.9503 287.259 18.7008Z" fill="#114E45"/>
<path d="M259.874 41.859C259.078 42.5445 257.507 42.0251 256.365 40.6989C255.222 39.3727 254.941 37.7418 255.737 37.0563C256.532 36.3708 258.104 36.8902 259.246 38.2164C260.389 39.5426 260.67 41.1734 259.874 41.859Z" fill="#0D463D"/>
<path d="M303.427 37.2501C304.118 38.0415 303.608 39.616 302.289 40.7668C300.97 41.9177 299.341 42.2091 298.651 41.4177C297.96 40.6263 298.47 39.0518 299.789 37.9009C301.108 36.7501 302.737 36.4587 303.427 37.2501Z" fill="url(#paint13_linear_6694_4330)"/>
<path d="M53.7418 160.66C54.1026 160.129 54.3958 157.54 54.4999 156.906C54.8115 155.76 55.3943 148.516 55.3943 146.329C55.3943 145.174 55.5017 143.685 55.8743 142.959C56.5332 141.692 57.9787 139.089 59.1583 138.504C58.5026 138.544 56.3568 139.771 55.8743 140.217C55.3224 140.662 54.8109 141.412 54.467 142.033C54.0385 142.781 54.0051 143.605 53.8262 144.448C53.4505 146.217 53.478 154.026 53.478 155.609C53.4779 157.191 53.6593 160.633 53.7418 160.66Z" fill="white"/>
<path d="M27.9865 175.439C28.3953 174.176 28.1177 168.759 28.3953 166.538C28.5386 165.391 28.8345 164.219 29.2072 163.493C29.866 162.226 32.141 160.62 33.3205 160.035C32.6649 160.075 30.519 161.303 30.0366 161.749C28.6724 162.849 28.329 163.737 27.9865 165.352C27.7973 166.243 27.7227 168.805 27.7227 170.388C27.7226 171.97 27.904 175.412 27.9865 175.439Z" fill="white"/>
<path d="M83.454 161.97C83.7015 159.841 83.5734 157.563 84.2967 155.52C84.7515 154.254 86.3219 152.647 87.1361 152.062C86.6835 152.103 85.2022 153.33 84.8692 153.776C83.7626 155.069 83.454 156.576 83.454 158.435C83.454 160.017 83.3971 161.942 83.454 161.97Z" fill="white"/>
</g>
<path d="M243.803 146.204C243.689 146.196 243.59 146.282 243.582 146.396C243.566 146.632 243.792 147.359 244.265 147.849C244.412 148.001 244.573 148.118 244.743 148.198C244.439 148.354 244.136 148.477 243.792 148.477C243.791 148.477 243.789 148.477 243.788 148.477C243.674 148.477 243.582 148.57 243.581 148.684C243.581 148.798 243.674 148.891 243.788 148.891H243.792C244.333 148.891 244.766 148.659 245.184 148.434C245.546 148.24 245.887 148.057 246.273 148.038C246.387 148.033 246.475 147.936 246.47 147.822C246.465 147.708 246.369 147.619 246.253 147.625C245.897 147.642 245.585 147.764 245.29 147.911C245.034 147.907 244.795 147.795 244.579 147.578C244.169 147.165 243.991 146.532 243.995 146.424C244.003 146.31 243.916 146.211 243.803 146.204Z" fill="#1A7A6C" stroke="black" stroke-width="0.2"/>
<path d="M244.713 149.229L244.497 149.445C244.416 149.526 244.416 149.657 244.497 149.738C244.538 149.778 244.591 149.798 244.644 149.798C244.697 149.798 244.75 149.778 244.79 149.738L245.006 149.521C245.087 149.441 245.087 149.309 245.006 149.229C244.925 149.148 244.794 149.148 244.713 149.229Z" fill="#1A7A6C" stroke="black" stroke-width="0.2"/>
<path d="M244.882 152.494C244.994 152.47 245.066 152.36 245.042 152.248C245.018 152.136 244.908 152.065 244.796 152.089C244.492 152.153 244.253 152.147 244.134 152.124C244.007 151.761 243.841 151.4 243.343 151.161C243.24 151.112 243.116 151.155 243.066 151.258C243.017 151.361 243.06 151.485 243.163 151.534C243.564 151.727 243.658 152.004 243.787 152.388C243.911 152.755 244.065 153.212 244.553 153.645C244.593 153.679 244.642 153.696 244.69 153.696C244.748 153.696 244.805 153.673 244.845 153.627C244.921 153.541 244.913 153.41 244.827 153.334C244.535 153.075 244.389 152.813 244.286 152.554C244.303 152.554 244.321 152.555 244.339 152.555C244.504 152.555 244.691 152.534 244.882 152.494Z" fill="#1A7A6C" stroke="black" stroke-width="0.2"/>
<path d="M247.276 151.791L247.06 152.007C246.979 152.088 246.979 152.219 247.06 152.3C247.1 152.341 247.153 152.361 247.206 152.361C247.259 152.361 247.312 152.341 247.353 152.3L247.569 152.084C247.65 152.003 247.65 151.872 247.569 151.791C247.488 151.71 247.357 151.71 247.276 151.791Z" fill="#1A7A6C" stroke="black" stroke-width="0.2"/>
<path d="M237.362 148.613C237.527 148.499 237.8 148.417 238.113 148.375C237.814 148.839 237.57 149.34 237.399 149.854C237.363 149.963 237.422 150.08 237.531 150.116C237.552 150.123 237.574 150.127 237.596 150.127C237.683 150.127 237.764 150.072 237.792 149.985C237.984 149.407 238.275 148.845 238.637 148.342C239.116 148.344 239.609 148.431 239.932 148.621C239.965 148.64 240.001 148.65 240.037 148.65C240.108 148.65 240.177 148.613 240.216 148.548C240.274 148.449 240.241 148.322 240.142 148.264C239.823 148.076 239.395 147.971 238.954 147.938C239.059 147.816 239.167 147.698 239.28 147.586C239.45 147.418 239.624 147.249 239.804 147.083C239.836 147.113 239.871 147.142 239.907 147.17C240.107 147.324 240.356 147.441 240.54 147.469C240.551 147.47 240.561 147.471 240.571 147.471C240.672 147.471 240.76 147.397 240.776 147.295C240.792 147.181 240.714 147.076 240.601 147.059C240.485 147.042 240.279 146.946 240.114 146.804C240.501 146.466 240.912 146.149 241.353 145.891C241.393 145.868 241.432 145.846 241.472 145.824C241.704 145.956 241.937 146.129 242.095 146.339C242.162 146.427 242.211 146.515 242.243 146.604C242.244 146.608 242.245 146.611 242.246 146.615C242.296 146.762 242.299 146.911 242.255 147.065C242.224 147.175 242.288 147.29 242.398 147.321C242.417 147.326 242.436 147.329 242.455 147.329C242.545 147.329 242.628 147.269 242.654 147.178C242.711 146.976 242.714 146.775 242.665 146.578C242.703 146.531 242.76 146.462 242.81 146.404C243.073 146.091 243.461 145.631 243.586 145.193C243.697 145.186 243.809 145.182 243.922 145.182C244.716 145.182 245.446 145.374 246.146 145.67C245.854 145.856 245.6 146.092 245.391 146.286L245.339 146.335C245.255 146.412 245.25 146.544 245.328 146.627C245.369 146.671 245.424 146.694 245.48 146.694C245.53 146.694 245.581 146.675 245.62 146.638L245.673 146.59C245.948 146.334 246.262 146.042 246.611 145.883C247.119 146.134 247.614 146.431 248.11 146.74C248.325 146.874 248.526 147.029 248.712 147.204C248.536 147.35 248.365 147.518 248.201 147.707C247.948 147.416 247.483 147.062 247.042 146.924C246.933 146.89 246.817 146.951 246.783 147.06C246.749 147.169 246.809 147.285 246.919 147.319C247.376 147.462 247.797 147.855 247.94 148.037C247.46 148.701 247.214 149.409 247.259 150.01C247.267 150.118 247.358 150.201 247.465 150.201C247.47 150.201 247.475 150.201 247.481 150.201C247.595 150.192 247.68 150.093 247.672 149.979C247.63 149.428 247.91 148.722 248.419 148.092C248.602 147.866 248.799 147.667 249 147.504C249.268 147.814 249.5 148.173 249.694 148.579C249.743 148.682 249.866 148.726 249.97 148.677C250.073 148.628 250.117 148.504 250.068 148.401C249.864 147.974 249.621 147.594 249.34 147.264C249.564 147.129 249.784 147.044 249.982 147.021C250.096 147.008 250.177 146.905 250.164 146.791C250.151 146.678 250.048 146.596 249.934 146.609C249.655 146.642 249.352 146.763 249.051 146.956C248.83 146.74 248.589 146.551 248.329 146.388C247.992 146.179 247.656 145.975 247.316 145.786C247.37 145.796 247.425 145.811 247.481 145.832C247.588 145.871 247.707 145.816 247.747 145.709C247.786 145.601 247.731 145.482 247.624 145.443C247.266 145.312 246.934 145.331 246.631 145.433C245.791 145.036 244.909 144.768 243.922 144.768C243.816 144.768 243.712 144.771 243.61 144.776C243.6 144.731 243.586 144.687 243.567 144.644C243.519 144.54 243.396 144.495 243.292 144.542C243.188 144.59 243.143 144.712 243.19 144.816C242.558 144.901 241.991 145.092 241.473 145.355C241.135 145.191 240.821 145.106 240.676 145.106C240.561 145.106 240.469 145.198 240.469 145.313C240.469 145.427 240.561 145.52 240.676 145.52C240.731 145.52 240.858 145.551 241.017 145.611C240.61 145.861 240.232 146.152 239.873 146.463C239.867 146.439 239.861 146.414 239.859 146.389C239.848 146.275 239.746 146.193 239.632 146.204C239.518 146.215 239.435 146.317 239.447 146.431C239.458 146.543 239.492 146.652 239.547 146.756C239.357 146.932 239.171 147.112 238.989 147.292C238.789 147.489 238.602 147.704 238.428 147.93C237.9 147.955 237.409 148.077 237.127 148.272C237.032 148.337 237.009 148.466 237.074 148.56C237.139 148.654 237.268 148.678 237.362 148.613ZM243.126 145.244C242.974 145.566 242.66 145.939 242.493 146.137C242.487 146.144 242.481 146.151 242.475 146.158C242.459 146.135 242.443 146.112 242.426 146.089C242.285 145.903 242.102 145.742 241.907 145.607C242.303 145.431 242.708 145.31 243.126 145.244Z" fill="#1A7A6C" stroke="black" stroke-width="0.2"/>
<path d="M248.36 151.969C248.37 151.97 248.38 151.971 248.389 151.971C248.491 151.971 248.579 151.896 248.594 151.793C248.622 151.596 248.551 151.397 248.389 151.216C248.288 151.103 248.085 150.938 247.936 150.938C247.934 150.938 247.932 150.938 247.93 150.938C247.815 150.941 247.726 151.037 247.73 151.151C247.733 151.251 247.806 151.332 247.901 151.349C247.974 151.383 248.208 151.564 248.184 151.734C248.168 151.848 248.247 151.952 248.36 151.969Z" fill="#1A7A6C" stroke="black" stroke-width="0.2"/>
<path d="M240.51 151.294C240.226 151.379 239.724 151.872 239.648 152.063C239.605 152.17 239.657 152.29 239.763 152.333C239.788 152.343 239.814 152.347 239.84 152.347C239.921 152.347 239.998 152.299 240.031 152.22C240.089 152.107 240.481 151.735 240.629 151.691C240.739 151.658 240.801 151.542 240.768 151.433C240.735 151.323 240.619 151.261 240.51 151.294Z" fill="#1A7A6C" stroke="black" stroke-width="0.2"/>
<path d="M241.616 154.724C241.906 155.076 242.236 155.475 242.841 155.761C242.869 155.774 242.899 155.781 242.929 155.781C243.006 155.781 243.081 155.737 243.116 155.662C243.165 155.559 243.121 155.435 243.018 155.386C242.673 155.223 242.431 155.017 242.227 154.799C242.271 154.788 242.317 154.776 242.365 154.763C242.809 154.647 243.362 154.502 243.605 154.794C243.646 154.843 243.705 154.869 243.764 154.869C243.811 154.869 243.858 154.853 243.896 154.821C243.984 154.748 243.996 154.617 243.923 154.529C243.512 154.035 242.788 154.224 242.26 154.363C242.135 154.395 242.015 154.427 241.92 154.443C241.522 153.962 241.104 153.469 240.051 153.395C239.937 153.387 239.838 153.473 239.83 153.587C239.822 153.701 239.908 153.8 240.022 153.808C240.91 153.871 241.222 154.247 241.616 154.724Z" fill="#1A7A6C" stroke="black" stroke-width="0.2"/>
<path d="M251.143 152.519C251.085 152.42 250.958 152.387 250.859 152.445C250.824 152.466 250.759 152.506 250.676 152.558C250.713 152.243 250.733 151.917 250.733 151.58C250.733 151.285 250.718 150.995 250.689 150.71C250.851 150.419 250.951 150.107 250.904 149.754C250.888 149.641 250.784 149.561 250.671 149.577C250.602 149.586 250.545 149.628 250.515 149.686C250.487 149.569 250.457 149.454 250.423 149.34C250.391 149.23 250.276 149.167 250.166 149.199C250.056 149.232 249.994 149.347 250.026 149.457C250.135 149.828 250.214 150.217 250.262 150.619C250.165 150.776 250.048 150.933 249.927 151.093C249.923 151.099 249.918 151.106 249.913 151.112C249.881 151.071 249.845 151.027 249.805 150.977C249.482 150.571 248.94 149.893 249.139 149.366C249.179 149.259 249.125 149.14 249.018 149.099C248.911 149.059 248.792 149.113 248.751 149.22C248.469 149.967 249.103 150.761 249.482 151.235C249.543 151.312 249.614 151.401 249.658 151.463C249.481 151.722 249.327 151.998 249.254 152.309C249.228 152.421 249.298 152.532 249.409 152.558C249.425 152.561 249.441 152.563 249.456 152.563C249.55 152.563 249.636 152.499 249.658 152.403C249.746 152.024 250.006 151.677 250.259 151.341C250.277 151.317 250.295 151.293 250.313 151.269C250.316 151.372 250.319 151.475 250.319 151.58C250.319 152.028 250.283 152.454 250.215 152.856C249.854 153.098 249.463 153.383 249.364 153.537C249.302 153.633 249.329 153.761 249.425 153.823C249.46 153.846 249.499 153.856 249.537 153.856C249.605 153.856 249.672 153.823 249.711 153.762C249.743 153.715 249.886 153.599 250.083 153.454C249.977 153.84 249.836 154.201 249.66 154.534C249.572 154.701 249.474 154.861 249.368 155.014C249.029 155.115 248.71 155.117 248.406 155.02C247.945 154.872 247.556 154.516 247.225 154.141C247.652 154.041 248.109 153.982 248.553 153.937C248.667 153.926 248.75 153.824 248.739 153.71C248.727 153.597 248.625 153.514 248.512 153.525C247.233 153.653 245.84 153.91 245.216 154.845C245.152 154.94 245.178 155.069 245.273 155.133C245.308 155.156 245.348 155.168 245.388 155.168C245.455 155.168 245.52 155.135 245.56 155.075C245.82 154.686 246.262 154.433 246.785 154.263C247.179 154.734 247.662 155.217 248.28 155.414C248.473 155.476 248.669 155.507 248.869 155.507C248.905 155.507 248.941 155.506 248.977 155.504C248.591 155.925 248.125 156.282 247.581 156.567C247.455 156.633 247.33 156.701 247.202 156.771C246.857 156.68 246.477 156.49 246.182 156.318C246.352 156.265 246.527 156.201 246.707 156.12C246.811 156.073 246.858 155.95 246.811 155.846C246.764 155.742 246.641 155.695 246.537 155.742C245.966 155.999 245.431 156.078 245.001 156.141C244.618 156.197 244.288 156.245 244.043 156.4C243.946 156.461 243.918 156.589 243.979 156.686C244.018 156.748 244.085 156.782 244.154 156.782C244.192 156.782 244.23 156.771 244.265 156.75C244.435 156.642 244.711 156.602 245.06 156.55C245.234 156.525 245.424 156.497 245.628 156.457C245.754 156.542 246.025 156.717 246.352 156.88C246.476 156.942 246.595 156.995 246.709 157.041C245.819 157.526 244.9 157.977 243.921 157.977C243.083 157.977 242.324 157.855 241.651 157.614C241.684 157.436 241.696 157.257 241.688 157.076C241.777 157.062 241.875 157.038 241.988 157.011C242.297 156.936 242.683 156.843 242.998 156.952C243.106 156.989 243.224 156.932 243.261 156.824C243.298 156.716 243.241 156.598 243.133 156.561C242.703 156.412 242.233 156.525 241.89 156.609C241.809 156.628 241.71 156.652 241.634 156.665C241.596 156.485 241.537 156.304 241.458 156.124C241.208 155.552 240.807 155.123 240.651 155.004C240.561 154.935 240.431 154.952 240.361 155.043C240.292 155.134 240.309 155.264 240.4 155.333C240.464 155.382 240.84 155.746 241.079 156.29C241.166 156.489 241.225 156.687 241.255 156.882C241.255 156.893 241.257 156.905 241.259 156.916C241.284 157.097 241.284 157.277 241.259 157.455C240.989 157.333 240.735 157.189 240.497 157.024C240.403 156.959 240.274 156.982 240.209 157.076C240.144 157.17 240.167 157.299 240.261 157.364C240.54 157.557 240.838 157.724 241.156 157.863C241.113 157.982 241.058 158.1 240.991 158.216C240.934 158.316 240.968 158.442 241.067 158.499C241.1 158.518 241.135 158.527 241.17 158.527C241.242 158.527 241.312 158.489 241.35 158.423C241.427 158.289 241.491 158.153 241.541 158.014C242.251 158.265 243.047 158.391 243.921 158.391C245.116 158.391 246.228 157.78 247.208 157.24C247.228 157.229 247.247 157.219 247.266 157.208C247.373 157.228 247.475 157.238 247.57 157.238C247.672 157.238 247.766 157.227 247.854 157.205C247.964 157.176 248.031 157.064 248.003 156.953C247.992 156.909 247.967 156.872 247.935 156.845C248.621 156.459 249.187 155.963 249.626 155.365C249.935 155.253 250.254 155.074 250.587 154.827C250.678 154.759 250.698 154.629 250.629 154.537C250.561 154.446 250.431 154.426 250.34 154.495C250.238 154.57 250.138 154.638 250.04 154.699C250.292 154.216 250.476 153.682 250.591 153.102C250.749 152.997 250.913 152.894 251.069 152.802C251.168 152.744 251.201 152.617 251.143 152.519Z" fill="#1A7A6C" stroke="black" stroke-width="0.2"/>
<path d="M239.124 155.513C239.223 155.218 239.357 154.968 239.509 154.8C239.585 154.716 239.579 154.585 239.494 154.508C239.409 154.431 239.278 154.438 239.202 154.523C239.074 154.663 238.965 154.838 238.874 155.028C238.756 154.796 238.626 154.561 238.5 154.332C238.159 153.715 237.81 153.084 237.636 152.417C237.701 152.196 237.781 152.005 237.874 151.839C237.88 151.845 237.885 151.85 237.891 151.856C238.191 152.161 238.813 152.795 238.813 153.273C238.813 153.387 238.906 153.48 239.02 153.48C239.134 153.48 239.227 153.387 239.227 153.273C239.227 152.625 238.55 151.936 238.187 151.566C238.162 151.541 238.136 151.514 238.112 151.49C238.417 151.122 238.806 150.885 239.235 150.625C239.311 150.579 239.387 150.532 239.464 150.485C239.562 150.424 239.591 150.297 239.531 150.199C239.471 150.102 239.343 150.072 239.246 150.133C239.17 150.18 239.095 150.225 239.02 150.271C238.528 150.57 238.05 150.86 237.685 151.366C237.684 151.369 237.682 151.371 237.681 151.373C237.68 151.374 237.679 151.376 237.678 151.377C237.624 151.453 237.572 151.534 237.524 151.62C237.523 151.607 237.523 151.593 237.523 151.58C237.523 151.354 237.54 151.121 237.575 150.889C237.591 150.776 237.513 150.671 237.4 150.654C237.287 150.637 237.182 150.716 237.165 150.829C237.128 151.081 237.109 151.333 237.109 151.58C237.109 151.869 237.146 152.147 237.209 152.418C237.115 152.776 237.055 153.201 237.036 153.712C237.032 153.827 237.121 153.923 237.236 153.927C237.238 153.927 237.241 153.927 237.243 153.927C237.354 153.927 237.446 153.839 237.45 153.727C237.456 153.555 237.467 153.393 237.483 153.242C237.67 153.686 237.905 154.113 238.137 154.533C238.299 154.825 238.451 155.101 238.585 155.378C238.614 155.439 238.645 155.498 238.676 155.557C238.522 156.096 238.499 156.636 238.619 156.856C238.657 156.925 238.728 156.964 238.801 156.964C238.835 156.964 238.869 156.956 238.9 156.939C239.001 156.884 239.038 156.758 238.983 156.658C238.956 156.607 238.938 156.394 238.987 156.076C239.142 156.303 239.313 156.516 239.498 156.711C239.539 156.754 239.594 156.775 239.648 156.775C239.7 156.775 239.751 156.757 239.791 156.718C239.874 156.64 239.877 156.509 239.798 156.426C239.542 156.156 239.316 155.85 239.124 155.513Z" fill="#1A7A6C" stroke="black" stroke-width="0.2"/>
<path d="M245.248 151.546C245.389 151.687 245.574 151.758 245.759 151.758C245.944 151.758 246.129 151.687 246.27 151.546L246.536 151.281C246.601 151.215 246.638 151.128 246.638 151.035C246.638 150.942 246.601 150.855 246.536 150.789L246.005 150.258C245.939 150.192 245.852 150.156 245.759 150.156C245.666 150.156 245.579 150.192 245.513 150.258L245.248 150.524C244.966 150.805 244.966 151.264 245.248 151.546L245.248 151.546ZM245.54 150.816L245.759 150.598L246.196 151.035L245.978 151.253C245.857 151.374 245.661 151.374 245.54 151.253C245.42 151.133 245.42 150.937 245.54 150.816Z" fill="#1A7A6C" stroke="black" stroke-width="0.2"/>
<path d="M238.442 149.447C238.359 149.526 238.356 149.657 238.436 149.739C238.476 149.782 238.531 149.803 238.585 149.803C238.637 149.803 238.688 149.784 238.728 149.745C238.849 149.629 239.094 149.578 239.237 149.604C239.35 149.624 239.458 149.55 239.478 149.437C239.499 149.325 239.424 149.217 239.311 149.196C239.063 149.151 238.674 149.224 238.442 149.447Z" fill="#1A7A6C" stroke="black" stroke-width="0.2"/>
<path d="M242.305 153.425C242.346 153.467 242.4 153.487 242.454 153.487C242.506 153.487 242.558 153.468 242.598 153.429C242.68 153.349 242.682 153.218 242.602 153.136C242.396 152.924 241.95 151.856 242.209 151.222C242.365 150.838 242.427 150.158 242.37 149.445C242.341 149.08 242.235 148.188 241.87 147.783C241.794 147.698 241.663 147.692 241.578 147.768C241.493 147.845 241.486 147.975 241.563 148.06C241.754 148.272 241.905 148.815 241.957 149.477C241.985 149.823 241.982 150.164 241.954 150.454C241.564 149.785 240.976 149.531 240.625 149.38C240.544 149.345 240.473 149.315 240.425 149.288C240.325 149.232 240.199 149.269 240.143 149.368C240.088 149.468 240.124 149.595 240.224 149.65C240.29 149.687 240.37 149.721 240.462 149.761C240.886 149.943 241.521 150.217 241.799 151.136C241.521 151.952 242.004 153.114 242.305 153.425Z" fill="#1A7A6C" stroke="black" stroke-width="0.2"/>
<path d="M212.207 149.276L212.207 149.276L212.209 149.274C213.699 148.204 215.385 148.087 217.092 148.433C218.802 148.781 220.516 149.591 222.046 150.357L222.047 150.358C223.844 151.242 225.717 151.852 227.746 152.249L227.747 152.249C229.053 152.5 230.011 152.311 230.851 151.843C231.63 151.408 232.302 150.735 233.052 149.984C233.1 149.935 233.149 149.886 233.198 149.837C233.444 149.591 233.647 149.593 233.74 149.642C233.823 149.685 233.895 149.808 233.803 150.008C232.76 151.604 231.46 152.524 229.965 152.861C228.463 153.198 226.747 152.951 224.872 152.176C224.013 151.821 223.146 151.383 222.264 150.939C222.146 150.879 222.028 150.82 221.91 150.76C220.909 150.257 219.89 149.758 218.86 149.383C216.798 148.632 214.668 148.37 212.502 149.561L212.502 149.561L212.495 149.565C212.361 149.648 212.235 149.603 212.169 149.521C212.135 149.479 212.122 149.434 212.125 149.396C212.128 149.362 212.146 149.318 212.207 149.276Z" fill="#1A7A6C" stroke="black" stroke-width="0.3"/>
<path d="M236.336 145.71L236.336 145.711C236.538 145.958 236.475 146.262 236.29 146.442C236.198 146.531 236.082 146.582 235.964 146.581C235.85 146.581 235.715 146.531 235.581 146.386C233.24 143.518 230.263 142.749 227.046 142.946C224.228 143.119 221.21 144.035 218.258 144.931C217.852 145.054 217.446 145.177 217.043 145.298C213.696 146.299 210.49 147.134 207.757 146.727C206.396 146.524 205.154 146.014 204.071 145.06C202.987 144.106 202.053 142.702 201.321 140.699L201.321 140.699L201.318 140.691C201.295 140.638 201.303 140.596 201.327 140.557C201.355 140.512 201.409 140.469 201.48 140.442C201.551 140.414 201.624 140.409 201.681 140.423C201.733 140.437 201.772 140.466 201.795 140.52L201.795 140.52L201.797 140.524C202.586 142.218 203.613 143.661 204.943 144.643C206.275 145.628 207.903 146.144 209.878 145.997C212.732 145.803 215.426 144.888 218.072 143.989C218.617 143.803 219.16 143.619 219.702 143.442C222.681 142.487 225.758 141.727 228.633 141.87C231.5 142.013 234.165 143.055 236.336 145.71Z" fill="#1A7A6C" stroke="black" stroke-width="0.3"/>
<path d="M251.65 155.658C251.16 156.853 249.605 158.554 247.462 159.421C246.538 159.795 246.672 160.393 247.151 160.337C248.706 160.157 250.98 158.505 251.994 156.64C253.043 154.71 252.457 153.696 251.65 155.658Z" fill="#1A7A6C" stroke="black" stroke-width="0.2"/>
<path d="M242.466 160.385C241.406 160.431 239.678 159.937 238.452 158.804C237.923 158.315 237.49 158.586 237.656 158.882C238.195 159.841 240.069 160.82 241.786 160.91C243.563 161.004 244.206 160.31 242.466 160.385Z" fill="#1A7A6C" stroke="black" stroke-width="0.2"/>
<defs>
<filter id="filter0_i_6694_4330" x="0" y="0" width="330.546" height="234.475" filterUnits="userSpaceOnUse" color-interpolation-filters="sRGB">
<feFlood flood-opacity="0" result="BackgroundImageFix"/>
<feBlend mode="normal" in="SourceGraphic" in2="BackgroundImageFix" result="shape"/>
<feColorMatrix in="SourceAlpha" type="matrix" values="0 0 0 0 0 0 0 0 0 0 0 0 0 0 0 0 0 0 127 0" result="hardAlpha"/>
<feOffset dy="6.1386"/>
<feGaussianBlur stdDeviation="8.1848"/>
<feComposite in2="hardAlpha" operator="arithmetic" k2="-1" k3="1"/>
<feColorMatrix type="matrix" values="0 0 0 0 0 0 0 0 0 0 0 0 0 0 0 0 0 0 0.25 0"/>
<feBlend mode="normal" in2="shape" result="effect1_innerShadow_6694_4330"/>
</filter>
<linearGradient id="paint0_linear_6694_4330" x1="262.808" y1="-15.611" x2="292.88" y2="53.3361" gradientUnits="userSpaceOnUse">
<stop stop-color="#1A7A6C"/>
<stop offset="1" stop-color="#0A5449"/>
</linearGradient>
<linearGradient id="paint1_linear_6694_4330" x1="261.092" y1="10.5849" x2="263.289" y2="20.3447" gradientUnits="userSpaceOnUse">
<stop stop-color="#114E45"/>
<stop offset="1" stop-color="#1A7A6C"/>
</linearGradient>
<linearGradient id="paint2_linear_6694_4330" x1="295.784" y1="-0.647477" x2="296.381" y2="2.44785" gradientUnits="userSpaceOnUse">
<stop stop-color="#1A7A6C"/>
<stop offset="1" stop-color="#0E584E"/>
</linearGradient>
<linearGradient id="paint3_linear_6694_4330" x1="307.969" y1="23.7489" x2="309.368" y2="28.5848" gradientUnits="userSpaceOnUse">
<stop stop-color="#1A7A6C"/>
<stop offset="1" stop-color="#0E584E"/>
</linearGradient>
<linearGradient id="paint4_linear_6694_4330" x1="281.873" y1="36.9187" x2="284.438" y2="50.2741" gradientUnits="userSpaceOnUse">
<stop stop-color="#033E36"/>
<stop offset="1" stop-color="#1A7A6C"/>
</linearGradient>
<linearGradient id="paint5_linear_6694_4330" x1="246.96" y1="28.1261" x2="252.019" y2="36.8878" gradientUnits="userSpaceOnUse">
<stop stop-color="#1A7A6C"/>
<stop offset="1" stop-color="#0E584E"/>
</linearGradient>
<linearGradient id="paint6_linear_6694_4330" x1="247.865" y1="27.7793" x2="252.165" y2="37.6539" gradientUnits="userSpaceOnUse">
<stop stop-color="#114E45"/>
<stop offset="1" stop-color="#1A7A6C"/>
</linearGradient>
<linearGradient id="paint7_linear_6694_4330" x1="278.427" y1="54.3012" x2="278.474" y2="55.8985" gradientUnits="userSpaceOnUse">
<stop stop-color="#1A7A6C"/>
<stop offset="1" stop-color="#0E584E"/>
</linearGradient>
<linearGradient id="paint8_linear_6694_4330" x1="278.466" y1="53.1826" x2="278.604" y2="55.9132" gradientUnits="userSpaceOnUse">
<stop stop-color="#114E45"/>
<stop offset="1" stop-color="#1A7A6C"/>
</linearGradient>
<linearGradient id="paint9_linear_6694_4330" x1="309.404" y1="32.1449" x2="312.983" y2="40.3203" gradientUnits="userSpaceOnUse">
<stop stop-color="#1A7A6C"/>
<stop offset="1" stop-color="#0E584E"/>
</linearGradient>
<linearGradient id="paint10_linear_6694_4330" x1="308.472" y1="31.6972" x2="311.674" y2="40.3774" gradientUnits="userSpaceOnUse">
<stop stop-color="#114E45"/>
<stop offset="1" stop-color="#1A7A6C"/>
</linearGradient>
<linearGradient id="paint11_linear_6694_4330" x1="305.633" y1="-0.465923" x2="307.224" y2="4.58658" gradientUnits="userSpaceOnUse">
<stop stop-color="#1A7A6C"/>
<stop offset="1" stop-color="#0E584E"/>
</linearGradient>
<linearGradient id="paint12_linear_6694_4330" x1="305.117" y1="-0.210177" x2="306.651" y2="5.04307" gradientUnits="userSpaceOnUse">
<stop stop-color="#1A7A6C"/>
<stop offset="1" stop-color="#0E584E"/>
</linearGradient>
<linearGradient id="paint13_linear_6694_4330" x1="300.608" y1="36.8684" x2="301.642" y2="41.7631" gradientUnits="userSpaceOnUse">
<stop stop-color="#114E45"/>
<stop offset="1" stop-color="#1A7A6C"/>
</linearGradient>
</defs>
</svg>
